:SAMPLES-PER-SECOND 30
:FULLY-SPECIFIED
:DEGREES
317
root  34.66939551 36.50138134 -14.91040958 8.550198555 -6.776254654 3.681327105
lowerback  -7.760540009 -1.462039948 -1.139440536
upperback  -4.148519993 -1.444710016 -2.81675005
thorax  0.02118469961 -0.5616440177 -2.37315011
lowerneck  -7.145909786 -12.4623003 -11.22379971
upperneck  16.4769001 -17.09910202 10.92259979
head  8.201189995 -7.821979523 3.606780052
lclavicle  0 -4.497500157e-015 -2.743230041e-014
lhumerus  -48.58449936 27.82169914 65.16729736
lradius  -2.057401616e-006 -6.507048965e-006 30.75359917
lwrist  4.824992743e-007 -3.790274832e-007 -26.9382
lhand  -4.403357898e-031 -36.68650055 -10.5717001
lfingers  90 7.125020027 -90
lthumb  94.69450592 -25.41686336 100.8314207
rclavicle  0 -4.497500157e-015 -2.743230041e-014
rhumerus  -65.39839935 -42.68899918 -34.51729584
rradius  -5.16745672e-007 2.214343908e-008 37.7356987
rwrist  -0.0001011603963 0.007538665552 -151.0160065
rhand  -1.773769959e-031 5.51391983 -5.793630123
rfingers  -90 -7.125020027 -90
rthumb  -83.89505489 -10.09180537 -58.60045054
rfemur  -12.9903059 16.73948097 12.93000889
rtibia  -1.418809295 -1.390834689 21.41472244
rfoot  0.1182576641 -22.76578522 -35.41476822
rtoes  3.940523329 19.62356788 -101.5911419
lfemur  -8.294066429 -16.36710167 -20.3267765
ltibia  2.429183245 -1.367150784 15.10389328
lfoot  0.9951110482 -22.81152916 37.98828888
ltoes  -8.603310072 -18.12379643 -115.9367771
318
root  34.66807088 36.50037811 -14.91783472 8.573314667 -6.730259895 3.665587902
lowerback  -7.821489334 -1.446779847 -1.12809968
upperback  -4.123929977 -1.422960043 -2.82810998
thorax  0.08031349629 -0.55112499 -2.391239882
lowerneck  -7.157320023 -12.49110031 -11.21380043
upperneck  16.4489994 -17.13310242 10.886199
head  8.193559647 -7.842049599 3.587960005
lclavicle  0 -4.497500157e-015 -2.743230041e-014
lhumerus  -48.5685997 27.84609985 65.15280151
lradius  -2.057401616e-006 -6.507048965e-006 30.69779968
lwrist  4.824992743e-007 -3.790274832e-007 -27.06920052
lhand  -4.402115997e-031 -36.66479874 -10.54539967
lfingers  90 7.125020027 -90
lthumb  94.67896641 -25.39185482 100.8059479
rclavicle  0 -4.497500157e-015 -2.743230041e-014
rhumerus  -66.0582962 -43.27569962 -33.73300552
rradius  -5.16745672e-007 2.214343908e-008 36.70190048
rwrist  -0.0001011603963 0.007538665552 -150.0429993
rhand  -1.774179408e-031 5.649240017 -5.99710989
rfingers  -90 -7.125020027 -90
rthumb  -83.96727148 -9.925472596 -58.48667683
rfemur  -13.04718971 16.68190956 12.95385075
rtibia  -1.435112834 -1.400456548 21.45130157
rfoot  0.1034974828 -22.78933144 -35.4017067
rtoes  3.945538642 19.6225983 -101.6060759
lfemur  -8.373929977 -16.31201935 -20.24448586
ltibia  2.382956505 -1.292784095 15.14767933
lfoot  1.029852986 -22.97436523 38.03409576
ltoes  -8.591107507 -18.12943191 -115.8975555
319
root  34.6667102 36.49924571 -14.91991028 8.587680817 -6.669008255 3.648833275
lowerback  -7.845300198 -1.438709974 -1.154920101
upperback  -4.112349987 -1.409819961 -2.821969986
thorax  0.1067340001 -0.5441970229 -2.369460106
lowerneck  -7.170660019 -12.53079987 -11.21689987
upperneck  16.42840004 -17.17749977 10.82820034
head  8.189089775 -7.869740486 3.562259912
lclavicle  0 -4.497500157e-015 -2.743230041e-014
lhumerus  -48.55469894 27.86260033 65.18389893
lradius  -2.057401616e-006 -6.507048965e-006 30.66959953
lwrist  4.824992743e-007 -3.790274832e-007 -27.0965004
lhand  -4.402070398e-031 -36.66400146 -10.57660007
lfingers  90 7.125020027 -90
lthumb  94.6850571 -25.42246548 100.8078674
rclavicle  0 -4.497500157e-015 -2.743230041e-014
rhumerus  -66.74729919 -43.84149933 -32.96979523
rradius  -5.16745672e-007 2.214343908e-008 35.91630173
rwrist  -0.0001011603963 0.007538665552 -148.4700012
rhand  -0 5.635829926 -6.110290051
rfingers  -90 -7.125020027 -90
rthumb  -84.03078347 -9.82823646 -58.51001535
rfemur  -13.05466557 16.65940857 12.97258759
rtibia  -1.437672257 -1.384987116 21.4362545
rfoot  0.1043846533 -22.74526978 -35.43983078
rtoes  3.930171541 19.62556507 -101.5603198
lfemur  -8.448243141 -16.30985832 -20.17725945
ltibia  2.330904961 -1.278900146 15.21234512
lfoot  1.002292156 -23.01483345 37.9541893
ltoes  -8.581263807 -18.13397072 -115.8659243
320
root  34.66783659 36.50038411 -14.92218558 8.586985588 -6.607732773 3.648301601
lowerback  -7.870069504 -1.421579838 -1.165299773
upperback  -4.109069824 -1.384729981 -2.824199915
thorax  0.1248290017 -0.5311819911 -2.364559889
lowerneck  -7.192749977 -12.57579994 -11.23919964
upperneck  16.42989922 -17.23660278 10.82540035
head  8.202329636 -7.898599625 3.554399967
lclavicle  0 -4.497500157e-015 -2.743230041e-014
lhumerus  -48.51570129 27.84449959 65.21009827
lradius  -2.057401616e-006 -6.507048965e-006 30.6257019
lwrist  4.824992743e-007 -3.790274832e-007 -27.12269974
lhand  -4.401235534e-031 -36.6493988 -10.56459999
lfingers  90 7.125020027 -90
lthumb  94.67577023 -25.41123837 100.791198
rclavicle  0 -4.497500157e-015 -2.743230041e-014
rhumerus  -67.23899841 -44.08789825 -32.61779785
rradius  -5.16745672e-007 2.214343908e-008 35.1651001
rwrist  -0.0001011603963 0.007538665552 -147.802002
rhand  -1.774082282e-031 5.617440224 -6.201179981
rfingers  -90 -7.125020027 -90
rthumb  -84.08371726 -9.749719881 -58.53626483
rfemur  -13.06504536 16.74499893 12.98998737
rtibia  -1.44745934 -1.331885576 21.47114944
rfoot  0.07755773515 -22.64697838 -35.55934906
rtoes  3.957488705 19.62028286 -101.6416624
lfemur  -8.436964035 -16.37861252 -20.17704391
ltibia  2.331776619 -1.283691764 15.18330288
lfoot  0.9733895063 -22.98112106 37.93846893
ltoes  -8.55641599 -18.14539887 -115.7861137
